<?xml version="1.0" standalone="no"?>
<!DOCTYPE svg PUBLIC "-//W3C//DTD SVG 20010904//EN"
 "http://www.w3.org/TR/2001/REC-SVG-20010904/DTD/svg10.dtd">
<svg version="1.0" xmlns="http://www.w3.org/2000/svg"
 width="920.000000pt" height="567.000000pt" viewBox="0 0 920.000000 567.000000"
 preserveAspectRatio="xMidYMid meet">

<g transform="translate(0.000000,567.000000) scale(0.100000,-0.100000)"
fill="#000000" stroke="none">
<path d="M2255 3960 c-11 -12 -13 -20 -6 -20 6 0 14 7 18 16 3 8 12 13 20 10
8 -3 11 -1 8 4 -9 15 -20 12 -40 -10z"/>
<path d="M6770 3833 l-145 -148 146 143 146 144 29 -30 c16 -16 52 -59 79 -95
28 -36 54 -66 59 -66 5 -1 2 7 -6 17 -8 9 -45 54 -82 100 -37 45 -71 82 -74
82 -4 0 -72 -66 -152 -147z"/>
<path d="M2179 3868 c-29 -35 -75 -97 -102 -138 -52 -80 -167 -307 -167 -331
0 -8 19 29 43 81 72 159 143 277 237 390 28 33 48 60 46 60 -3 0 -29 -28 -57
-62z"/>
<path d="M7090 3761 c0 -5 5 -13 10 -16 6 -3 10 -2 10 4 0 5 -4 13 -10 16 -5
3 -10 2 -10 -4z"/>
<path d="M2516 3738 c10 -13 81 -85 157 -160 75 -76 137 -141 137 -145 0 -3
-8 -16 -17 -27 -13 -15 -10 -14 10 4 l28 24 -163 163 c-151 152 -198 195 -152
141z"/>
<path d="M7130 3708 c0 -4 10 -24 22 -45 12 -21 35 -62 51 -90 45 -82 43 -62
-3 26 -41 78 -69 122 -70 109z"/>
<path d="M6494 3558 l-122 -123 50 -60 c27 -33 58 -77 69 -97 11 -21 22 -38
24 -38 12 0 -37 79 -83 135 l-50 60 122 123 c66 67 118 122 116 122 -3 0 -60
-55 -126 -122z"/>
<path d="M7241 3503 c-1 -17 39 -107 44 -101 3 3 -6 29 -19 59 -14 30 -25 49
-25 42z"/>
<path d="M2760 3369 c0 -5 5 -7 10 -4 6 3 10 8 10 11 0 2 -4 4 -10 4 -5 0 -10
-5 -10 -11z"/>
<path d="M7292 3360 c7 -10 14 -18 15 -16 6 6 -9 36 -18 36 -5 0 -4 -9 3 -20z"/>
<path d="M1886 3335 c-3 -9 -6 -22 -5 -28 0 -7 5 -1 10 12 5 13 8 26 5 28 -2
2 -6 -3 -10 -12z"/>
<path d="M2726 3324 c-5 -14 -4 -15 9 -4 17 14 19 20 6 20 -5 0 -12 -7 -15
-16z"/>
<path d="M7311 3314 c0 -11 3 -14 6 -6 3 7 2 16 -1 19 -3 4 -6 -2 -5 -13z"/>
<path d="M2667 3219 c-21 -44 -37 -82 -35 -84 2 -2 22 35 44 81 23 46 39 84
35 84 -3 0 -23 -37 -44 -81z"/>
<path d="M1851 3206 c-6 -25 -11 -55 -10 -68 0 -13 7 6 15 41 16 74 12 94 -5
27z"/>
<path d="M7335 3225 c1 -16 5 -37 8 -45 3 -8 8 -22 10 -30 4 -10 5 -8 5 5 0
11 -6 38 -13 60 -11 34 -13 36 -10 10z"/>
<path d="M6542 3180 c11 -28 23 -49 25 -47 4 5 -34 97 -41 97 -3 0 5 -23 16
-50z"/>
<path d="M6572 3110 c0 -8 6 -31 13 -50 7 -19 13 -28 13 -20 0 8 -6 31 -13 50
-7 19 -13 28 -13 20z"/>
<path d="M1832 3085 c0 -16 2 -22 5 -12 2 9 2 23 0 30 -3 6 -5 -1 -5 -18z"/>
<path d="M2610 3070 c-6 -23 -9 -44 -7 -46 2 -3 9 14 15 38 6 23 9 44 7 46 -2
2 -9 -15 -15 -38z"/>
<path d="M7365 3061 c3 -30 7 -56 10 -59 7 -8 4 48 -6 83 -6 22 -7 16 -4 -24z"/>
<path d="M1822 3020 c0 -19 2 -27 5 -17 2 9 2 25 0 35 -3 9 -5 1 -5 -18z"/>
<path d="M6601 3004 c0 -11 3 -14 6 -6 3 7 2 16 -1 19 -3 4 -6 -2 -5 -13z"/>
<path d="M2592 2990 c0 -14 2 -19 5 -12 2 6 2 18 0 25 -3 6 -5 1 -5 -13z"/>
<path d="M7383 2915 c0 -44 2 -61 4 -37 2 23 2 59 0 80 -2 20 -4 1 -4 -43z"/>
<path d="M1814 2835 c0 -82 2 -115 3 -72 2 43 2 110 0 150 -1 40 -3 5 -3 -78z"/>
<path d="M6614 2835 c0 -66 1 -92 3 -57 2 34 2 88 0 120 -2 31 -3 3 -3 -63z"/>
<path d="M2584 2835 c0 -55 1 -76 3 -47 2 29 2 74 0 100 -2 26 -3 2 -3 -53z"/>
<path d="M7383 2750 c0 -41 2 -58 4 -37 2 20 2 54 0 75 -2 20 -4 3 -4 -38z"/>
<path d="M2592 2680 c0 -14 2 -19 5 -12 2 6 2 18 0 25 -3 6 -5 1 -5 -13z"/>
<path d="M6602 2670 c0 -14 2 -19 5 -12 2 6 2 18 0 25 -3 6 -5 1 -5 -13z"/>
<path d="M1822 2650 c0 -19 2 -27 5 -17 2 9 2 25 0 35 -3 9 -5 1 -5 -18z"/>
<path d="M7369 2638 c-3 -22 -1 -34 4 -29 5 5 7 21 5 37 -3 27 -4 26 -9 -8z"/>
<path d="M2601 2640 c0 -8 4 -22 9 -30 12 -18 12 -2 0 25 -6 13 -9 15 -9 5z"/>
<path d="M6586 2614 c-4 -14 -5 -28 -3 -31 3 -2 8 8 11 23 4 14 5 28 3 31 -3
2 -8 -8 -11 -23z"/>
<path d="M1832 2585 c0 -16 2 -22 5 -12 2 9 2 23 0 30 -3 6 -5 -1 -5 -18z"/>
<path d="M7358 2567 c-3 -19 -2 -25 4 -19 6 6 8 18 6 28 -3 14 -5 12 -10 -9z"/>
<path d="M1842 2530 c0 -14 2 -19 5 -12 2 6 2 18 0 25 -3 6 -5 1 -5 -13z"/>
<path d="M2631 2540 c0 -8 6 -26 14 -40 8 -14 14 -19 14 -10 0 8 -6 26 -14 40
-8 14 -14 19 -14 10z"/>
<path d="M6542 2491 c-49 -119 -151 -249 -257 -329 -76 -57 -89 -70 -47 -46
59 33 177 150 231 228 49 72 106 184 98 192 -2 3 -13 -18 -25 -45z"/>
<path d="M7352 2510 c0 -14 2 -19 5 -12 2 6 2 18 0 25 -3 6 -5 1 -5 -13z"/>
<path d="M1851 2464 c6 -21 13 -41 16 -44 9 -9 -9 65 -18 74 -4 5 -3 -8 2 -30z"/>
<path d="M7332 2439 c-6 -23 -7 -38 -2 -33 9 10 24 74 17 74 -3 0 -9 -19 -15
-41z"/>
<path d="M2660 2462 c0 -16 120 -191 141 -206 20 -14 11 -24 -249 -286 l-270
-271 -62 68 c-34 37 -50 52 -35 33 15 -19 43 -52 62 -74 l35 -39 276 276 275
275 -50 59 c-28 32 -65 84 -83 116 -31 55 -40 66 -40 49z"/>
<path d="M1871 2394 c0 -11 3 -14 6 -6 3 7 2 16 -1 19 -3 4 -6 -2 -5 -13z"/>
<path d="M7313 2363 c-3 -10 -12 -33 -19 -51 -7 -18 -9 -30 -5 -27 10 6 43 95
35 95 -3 0 -7 -8 -11 -17z"/>
<path d="M1880 2364 c0 -34 131 -334 145 -334 3 0 -12 35 -34 78 -21 42 -53
118 -71 167 -33 90 -40 107 -40 89z"/>
<path d="M7266 2236 c-9 -19 -16 -40 -16 -48 0 -7 9 7 20 31 11 24 19 46 16
48 -2 2 -11 -12 -20 -31z"/>
<path d="M4886 1952 c-152 -152 -276 -277 -276 -279 0 -5 167 -146 185 -155
26 -13 18 -6 -88 82 l-88 73 268 269 c147 147 271 268 275 268 3 0 14 -7 23
-16 9 -9 18 -14 20 -12 3 3 -6 14 -19 25 l-23 20 -277 -275z"/>
<path d="M5246 2147 c5 -14 63 -52 69 -45 1 1 -14 15 -36 30 -21 15 -36 21
-33 15z"/>
<path d="M7215 2119 c-4 -6 -5 -12 -2 -15 2 -3 7 2 10 11 7 17 1 20 -8 4z"/>
<path d="M5330 2092 c0 -8 91 -54 96 -49 2 1 -19 15 -46 29 -28 15 -50 24 -50
20z"/>
<path d="M6155 2078 c-22 -12 -67 -32 -100 -45 -33 -13 -46 -21 -30 -18 33 7
175 71 175 80 0 7 1 7 -45 -17z"/>
<path d="M7195 2079 c-4 -6 -5 -12 -2 -15 2 -3 7 2 10 11 7 17 1 20 -8 4z"/>
<path d="M5469 2025 c18 -8 38 -15 45 -15 6 1 -4 7 -23 15 -18 8 -38 15 -45
15 -6 -1 4 -7 23 -15z"/>
<path d="M2039 2005 c5 -11 17 -29 26 -40 l16 -20 -10 20 c-5 11 -17 29 -26
40 l-16 20 10 -20z"/>
<path d="M7150 2000 c-6 -11 -8 -20 -6 -20 3 0 10 9 16 20 6 11 8 20 6 20 -3
0 -10 -9 -16 -20z"/>
<path d="M5575 1994 c28 -7 61 -13 75 -13 14 0 -2 7 -35 14 -78 18 -104 17
-40 -1z"/>
<path d="M5912 1996 c-30 -6 -51 -14 -48 -17 6 -6 105 16 114 26 7 6 0 5 -66
-9z"/>
<path d="M5713 1973 c9 -2 23 -2 30 0 6 3 -1 5 -18 5 -16 0 -22 -2 -12 -5z"/>
<path d="M5773 1973 c9 -2 25 -2 35 0 9 3 1 5 -18 5 -19 0 -27 -2 -17 -5z"/>
<path d="M7125 1959 c-4 -6 -5 -12 -2 -15 2 -3 7 2 10 11 7 17 1 20 -8 4z"/>
<path d="M7067 1874 c-21 -30 -36 -54 -33 -54 7 0 79 100 75 104 -2 2 -21 -20
-42 -50z"/>
<path d="M2120 1880 c11 -16 26 -33 32 -36 7 -4 -1 9 -16 29 -34 44 -46 50
-16 7z"/>
<path d="M6997 1788 c-10 -11 -17 -22 -14 -24 2 -2 12 5 22 16 23 26 16 33 -8
8z"/>
<path d="M6911 1693 c-29 -30 -51 -56 -49 -58 2 -3 28 20 58 50 30 30 52 56
49 58 -2 3 -28 -20 -58 -50z"/>
<path d="M6795 1584 c-43 -40 -45 -42 -9 -15 38 28 72 61 63 61 -2 0 -26 -21
-54 -46z"/>
<path d="M6675 1496 c-97 -66 -113 -79 -70 -55 55 31 123 77 130 89 8 13 8 13
-60 -34z"/>
<path d="M4825 1500 c8 -13 101 -73 146 -94 37 -18 31 -13 -78 57 -41 26 -72
43 -68 37z"/>
<path d="M6490 1385 c-36 -19 -61 -34 -57 -35 10 0 127 59 127 65 0 7 2 8 -70
-30z"/>
<path d="M5010 1386 c0 -2 7 -7 16 -10 8 -3 12 -2 9 4 -6 10 -25 14 -25 6z"/>
<path d="M5114 1336 c11 -9 27 -16 35 -15 14 0 14 1 1 6 -8 3 -24 10 -35 15
-20 9 -20 9 -1 -6z"/>
<path d="M6360 1328 c-25 -11 -79 -31 -120 -43 -41 -13 -68 -24 -60 -24 8 -1
42 8 75 18 63 20 177 69 160 69 -5 1 -30 -9 -55 -20z"/>
<path d="M5190 1305 c14 -8 32 -14 40 -14 8 0 0 6 -19 14 -42 19 -54 19 -21 0z"/>
<path d="M5250 1288 c8 -8 100 -37 100 -32 0 2 -11 9 -25 14 -34 13 -81 24
-75 18z"/>
<path d="M5368 1253 c7 -3 16 -2 19 1 4 3 -2 6 -13 5 -11 0 -14 -3 -6 -6z"/>
<path d="M6138 1253 c7 -3 16 -2 19 1 4 3 -2 6 -13 5 -11 0 -14 -3 -6 -6z"/>
<path d="M5415 1240 c11 -5 29 -8 40 -8 16 0 15 2 -5 8 -34 11 -60 11 -35 0z"/>
<path d="M6098 1243 c7 -3 16 -2 19 1 4 3 -2 6 -13 5 -11 0 -14 -3 -6 -6z"/>
<path d="M6058 1233 c7 -3 16 -2 19 1 4 3 -2 6 -13 5 -11 0 -14 -3 -6 -6z"/>
<path d="M5493 1223 c9 -2 25 -2 35 0 9 3 1 5 -18 5 -19 0 -27 -2 -17 -5z"/>
<path d="M5973 1223 c15 -2 37 -2 50 0 12 2 0 4 -28 4 -27 0 -38 -2 -22 -4z"/>
<path d="M5598 1213 c12 -2 32 -2 45 0 12 2 2 4 -23 4 -25 0 -35 -2 -22 -4z"/>
<path d="M5878 1213 c12 -2 32 -2 45 0 12 2 2 4 -23 4 -25 0 -35 -2 -22 -4z"/>
<path d="M5713 1203 c26 -2 67 -2 90 0 23 2 2 3 -48 3 -49 0 -68 -1 -42 -3z"/>
</g>
</svg>
