<?xml version="1.0" encoding="UTF-8"?>
<svg version="1.1" xmlns="http://www.w3.org/2000/svg" width="977" height="602">
<path d="M0 0 C322.41 0 644.82 0 977 0 C977 198.66 977 397.32 977 602 C654.59 602 332.18 602 0 602 C0 403.34 0 204.68 0 0 Z " fill="#FEFEFE" transform="translate(0,0)"/>
<path d="M0 0 C26.95902032 21.33904846 48.58315757 48.49772054 59.71923828 81.36083984 C59.93032227 81.9725 60.14140625 82.58416016 60.35888672 83.21435547 C63.75468313 93.137461 66.06536072 103.00175539 67.71923828 113.36083984 C67.89124756 114.43213135 68.06325684 115.50342285 68.24047852 116.60717773 C74.06249851 162.25407087 61.59525694 208.50875976 33.84423828 245.04833984 C11.65378124 273.47767538 -17.53522842 294.93059926 -52.28076172 305.36083984 C-52.98974609 305.58320313 -53.69873047 305.80556641 -54.42919922 306.03466797 C-99.52840986 320.11814033 -146.25731777 313.9975408 -187.90576172 292.61083984 C-196.66149803 287.97914378 -204.56302686 282.55033142 -212.28076172 276.36083984 C-212.89806152 275.86841797 -213.51536133 275.37599609 -214.15136719 274.86865234 C-215.97724267 273.40072642 -217.78879566 271.91748211 -219.59326172 270.42333984 C-220.13901855 269.97482666 -220.68477539 269.52631348 -221.24707031 269.06420898 C-224.0501443 266.68245041 -225.71260961 264.6517506 -227.28076172 261.36083984 C-228.27076172 261.03083984 -229.26076172 260.70083984 -230.28076172 260.36083984 C-231.88085938 258.79443359 -231.88085938 258.79443359 -233.56982422 256.79833984 C-234.18374023 256.07388672 -234.79765625 255.34943359 -235.43017578 254.60302734 C-244.61761574 243.47143782 -252.71280849 232.23230933 -259.28076172 219.36083984 C-259.88275391 218.20841797 -260.48474609 217.05599609 -261.10498047 215.86865234 C-277.97152448 181.83234555 -284.26603851 139.62043871 -275.28076172 102.36083984 C-275.08740234 101.54325195 -274.89404297 100.72566406 -274.69482422 99.88330078 C-263.68828726 54.78707295 -236.03902709 15.8878946 -196.58105469 -8.69824219 C-177.06856939 -20.54610294 -155.88115326 -29.04995863 -133.28076172 -32.63916016 C-131.87153442 -32.88859375 -131.87153442 -32.88859375 -130.43383789 -33.14306641 C-85.49709149 -40.73934683 -36.0535561 -27.87045038 0 0 Z " fill="#F9AB01" transform="translate(716.28076171875,161.63916015625)"/>
<path d="M0 0 C-0.57522068 4.4933905 -2.3028889 7.49095135 -4.6875 11.3125 C-5.51209478 12.65261471 -6.33488678 13.99383972 -7.15625 15.3359375 C-7.836875 16.44533691 -7.836875 16.44533691 -8.53125 17.57714844 C-11.310432 22.16169002 -13.99316687 26.80276809 -16.6875 31.4375 C-17.2760376 32.44772217 -17.8645752 33.45794434 -18.47094727 34.4987793 C-21.60893113 39.88584163 -24.74110864 45.27625593 -27.87109375 50.66796875 C-28.81432495 52.29037476 -28.81432495 52.29037476 -29.77661133 53.94555664 C-30.97992544 56.01539677 -32.18166795 58.08615162 -33.3815918 60.15795898 C-36.1238608 64.87301363 -38.90107523 69.51033826 -42 74 C-42.69222656 73.47212891 -42.69222656 73.47212891 -43.3984375 72.93359375 C-45.5890759 71.27546231 -47.7926119 69.63576806 -50 68 C-50.77085937 67.42378906 -51.54171875 66.84757812 -52.3359375 66.25390625 C-72.62092066 51.51611104 -96.75180678 46.24501639 -121.55517578 49.31640625 C-130.16859837 50.84900401 -138.28921737 53.90507254 -146 58 C-146.97453125 58.51433594 -147.9490625 59.02867187 -148.953125 59.55859375 C-170.74331814 71.65494456 -185.24389831 90.44171068 -192.25 114.3125 C-198.31092068 136.09703867 -195.03011728 159.84667851 -185 180 C-171.993461 202.92581161 -152.87919905 217.44682845 -127.8515625 225.08984375 C-105.03702112 230.48110961 -79.347152 226.98767982 -59.3034668 214.71899414 C-53.45373032 210.96778232 -48.00461442 206.83364933 -43 202 C-39.92473059 204.85200043 -37.8458123 207.65922779 -35.78515625 211.3046875 C-35.18807861 212.35188965 -34.59100098 213.3990918 -33.97583008 214.47802734 C-33.34443115 215.59902832 -32.71303223 216.7200293 -32.0625 217.875 C-31.05642034 219.64314896 -30.0477993 221.40983155 -29.03898621 223.17642212 C-28.3548783 224.37457744 -27.671461 225.57312733 -26.98872375 226.77206421 C-23.8168816 232.33834602 -20.57816722 237.86337589 -17.3125 243.375 C-16.79155762 244.25478516 -16.27061523 245.13457031 -15.73388672 246.04101562 C-10.1926796 255.38264629 -4.60275307 264.69518238 1 274 C-20.20881034 297.14176521 -60.65397318 309.05713575 -91 311 C-141.79053893 312.86235571 -187.31807982 299.24631292 -225.28417969 264.61376953 C-245.89500617 245.2288004 -260.49117719 221.54499591 -270 195 C-270.24975586 194.32437012 -270.49951172 193.64874023 -270.75683594 192.95263672 C-277.51149312 174.48272462 -279.37158164 155.53217334 -279.4375 136 C-279.4436734 135.22443756 -279.4498468 134.44887512 -279.45620728 133.64981079 C-279.51198914 122.76369843 -278.39716647 112.61549755 -276 102 C-275.79608643 101.08476562 -275.59217285 100.16953125 -275.38208008 99.2265625 C-264.75703229 53.84342623 -237.51953262 15.67147734 -198.30419922 -9.57519531 C-139.06499443 -46.20583731 -54.55164318 -46.93617163 0 0 Z " fill="#E8710A" transform="translate(471,163)"/>
<path d="M0 0 C20.25489464 15.75380695 34.96970511 42.0540665 43 66 C43.20963379 66.60875977 43.41926758 67.21751953 43.63525391 67.84472656 C47.03298035 77.77117314 49.34551022 87.63708087 51 98 C51.17200928 99.0712915 51.34401855 100.14258301 51.52124023 101.24633789 C57.34326023 146.89323103 44.87601866 193.14791992 17.125 229.6875 C-5.06545704 258.11683554 -34.2544667 279.56975942 -69 290 C-69.70898438 290.22236328 -70.41796875 290.44472656 -71.1484375 290.67382812 C-116.24764814 304.75730049 -162.97655605 298.63670096 -204.625 277.25 C-213.38073631 272.61830393 -221.28226514 267.18949157 -229 261 C-229.6172998 260.50757813 -230.23459961 260.01515625 -230.87060547 259.5078125 C-232.69648095 258.03988657 -234.50803394 256.55664227 -236.3125 255.0625 C-237.13113525 254.38973022 -237.13113525 254.38973022 -237.96630859 253.70336914 C-240.76283757 251.32717184 -242.48743982 249.31817068 -244 246 C-241.83656815 243.8092214 -239.66938036 241.62237594 -237.5 239.4375 C-236.89929688 238.82841797 -236.29859375 238.21933594 -235.6796875 237.59179688 C-235.07382812 236.98271484 -234.46796875 236.37363281 -233.84375 235.74609375 C-233.29912109 235.19622803 -232.75449219 234.6463623 -232.19335938 234.07983398 C-230.27584783 232.26157031 -228.31609663 230.5382916 -226.31445312 228.81445312 C-221.71698614 224.81193492 -217.41930482 220.54581913 -213.125 216.22265625 C-212.31506592 215.41130722 -211.50513184 214.59995819 -210.6706543 213.76402283 C-208.11138985 211.19920861 -205.5556447 208.63092052 -203 206.0625 C-201.25413867 204.31161717 -199.50804713 202.56096387 -197.76171875 200.81054688 C-193.50514802 196.54301384 -189.25145284 192.27263134 -185 188 C-184.45204773 188.41100952 -183.90409546 188.82201904 -183.33953857 189.2454834 C-182.62002014 189.78515747 -181.90050171 190.32483154 -181.15917969 190.88085938 C-180.44622742 191.4156189 -179.73327515 191.95037842 -178.99871826 192.50134277 C-156.79973052 209.14634674 -133.35059758 215.85808176 -105.6484375 212.57421875 C-84.2970158 208.84800704 -63.12262045 196.21838699 -50 179 C-41.68114048 167.01894805 -35.95890965 154.28365738 -33 140 C-32.74089844 138.83343872 -32.74089844 138.83343872 -32.4765625 137.64331055 C-28.43974748 115.25263623 -34.77555363 91.83061216 -47 73 C-50.0867669 68.78708684 -53.48843852 64.86415679 -57 61 C-52.36719546 55.46460949 -47.45597558 50.38081555 -42.29882812 45.33789062 C-39.40045474 42.47803383 -36.61877096 39.59332584 -33.98828125 36.484375 C-30.51389922 32.45693005 -26.78315743 28.72231997 -23.0078125 24.98046875 C-22.37252121 24.35068619 -21.73722992 23.72090363 -21.08268738 23.07203674 C-18.41931899 20.43644399 -15.75233824 17.80457243 -13.08105469 15.17700195 C-11.11479673 13.24083012 -9.15471145 11.29857801 -7.1953125 9.35546875 C-6.58809357 8.76170944 -5.98087463 8.16795013 -5.35525513 7.55619812 C-1.99296197 4.23147083 -1.99296197 4.23147083 0 0 Z " fill="#E8710A" transform="translate(733,177)"/>
<path d="M0 0 C1.80859375 1.84765625 1.80859375 1.84765625 1.80859375 3.84765625 C2.370625 4.06035156 2.93265625 4.27304688 3.51171875 4.4921875 C6.5694768 6.29668077 8.45107563 8.74532142 10.55859375 11.53515625 C10.99324951 12.10967529 11.42790527 12.68419434 11.87573242 13.27612305 C26.94015882 33.73939306 32.57620231 57.44772233 29.3125 82.68359375 C28.62930855 85.81006308 27.79299184 88.803167 26.80859375 91.84765625 C26.46828125 92.97042969 26.12796875 94.09320313 25.77734375 95.25 C18.16359623 118.52851861 2.45714336 137.37855997 -19.4609375 148.5078125 C-41.32197997 158.86572203 -66.00747559 161.9444303 -89.19140625 153.84765625 C-104.22742051 148.42956156 -115.9340064 139.94119293 -127.19140625 128.84765625 C-128.19494141 127.86345703 -128.19494141 127.86345703 -129.21875 126.859375 C-143.95422023 111.25514689 -150.80642183 88.59303419 -150.62890625 67.59765625 C-150.61988281 66.31930908 -150.61085938 65.04096191 -150.6015625 63.72387695 C-150.15324443 39.23294578 -139.66814552 17.97752894 -122.19140625 0.84765625 C-87.14442469 -30.18991288 -35.65255281 -30.0371433 0 0 Z " fill="#FEFEFE" transform="translate(672.19140625,233.15234375)"/>
<path d="M0 0 C-0.57522068 4.4933905 -2.3028889 7.49095135 -4.6875 11.3125 C-5.51209478 12.65261471 -6.33488678 13.99383972 -7.15625 15.3359375 C-7.61 16.07553711 -8.06375 16.81513672 -8.53125 17.57714844 C-11.310432 22.16169002 -13.99316687 26.80276809 -16.6875 31.4375 C-17.5703064 32.95283325 -17.5703064 32.95283325 -18.47094727 34.4987793 C-21.60893113 39.88584163 -24.74110864 45.27625593 -27.87109375 50.66796875 C-28.81432495 52.29037476 -28.81432495 52.29037476 -29.77661133 53.94555664 C-30.97992544 56.01539677 -32.18166795 58.08615162 -33.3815918 60.15795898 C-36.1238608 64.87301363 -38.90107523 69.51033826 -42 74 C-42.69222656 73.47212891 -42.69222656 73.47212891 -43.3984375 72.93359375 C-45.5890759 71.27546231 -47.7926119 69.63576806 -50 68 C-50.77085937 67.42378906 -51.54171875 66.84757812 -52.3359375 66.25390625 C-72.62092066 51.51611104 -96.75180678 46.24501639 -121.55517578 49.31640625 C-130.16859837 50.84900401 -138.28921737 53.90507254 -146 58 C-146.97453125 58.51433594 -147.9490625 59.02867187 -148.953125 59.55859375 C-156.33811384 63.65820935 -162.63082836 68.4708569 -169 74 C-172.86956211 72.41763165 -175.49589546 69.79345216 -178.39526367 66.87939453 C-178.9209343 66.35883484 -179.44660492 65.83827515 -179.98820496 65.30194092 C-181.71998571 63.58403236 -183.44426482 61.85882241 -185.16796875 60.1328125 C-186.37032942 58.93433929 -187.57291341 57.73609008 -188.77571106 56.53805542 C-191.29326752 54.02795551 -193.80691953 51.51402138 -196.31811523 48.99755859 C-199.53782078 45.77205104 -202.7687635 42.55806733 -206.00294018 39.34707832 C-208.48826446 36.87647672 -210.96663698 34.39899269 -213.44304848 31.9194603 C-214.63164045 30.731382 -215.82260072 29.54566817 -217.01595116 28.36236954 C-218.68219807 26.70844463 -220.33864092 25.04527819 -221.99291992 23.37939453 C-222.48798035 22.89197784 -222.98304077 22.40456116 -223.49310303 21.90237427 C-225.95052697 19.40664202 -227.60066435 17.5519015 -228 14 C-168.76492517 -43.95745557 -65.33894981 -56.21755796 0 0 Z " fill="#F8AB01" transform="translate(471,163)"/>
<path d="M0 0 C2.31 1.98 4.62 3.96 7 6 C26.78498491 22.25195189 50.79928392 28.26055459 76.07470703 25.79785156 C95.41714674 23.20319374 112.99719501 14.5244483 127 1 C130.07526941 3.85200043 132.1541877 6.65922779 134.21484375 10.3046875 C134.81192139 11.35188965 135.40899902 12.3990918 136.02416992 13.47802734 C136.65556885 14.59902832 137.28696777 15.7200293 137.9375 16.875 C138.94357966 18.64314896 139.9522007 20.40983155 140.96101379 22.17642212 C141.6451217 23.37457744 142.328539 24.57312733 143.01127625 25.77206421 C146.1831184 31.33834602 149.42183278 36.86337589 152.6875 42.375 C153.20844238 43.25478516 153.72938477 44.13457031 154.26611328 45.04101562 C159.8073204 54.38264629 165.39724693 63.69518238 171 73 C149.79118966 96.14176521 109.34602682 108.05713575 79 110 C27.20795547 111.89907829 -18.6439479 97.59311615 -57 62 C-57.66 61.01 -58.32 60.02 -59 59 C-39.53 39.53 -20.06 20.06 0 0 Z " fill="#F9AB01" transform="translate(301,364)"/>
</svg>
